<?xml version="1.0" encoding="UTF-8"?>
<svg id="Capa_2" data-name="Capa 2" xmlns="http://www.w3.org/2000/svg" viewBox="0 0 11.18 15.86">
  <defs>
    <style>
      .cls-1 {
        fill: #272d63;
      }
    </style>
  </defs>
  <g id="Capa_1_copia_2" data-name="Capa 1 copia 2">
    <path class="cls-1" d="M5.58,15.86C3.36,13.27,1.25,10.64.26,7.33-.55,4.73.61,1.91,3.02.63,5.36-.6,8.25,0,9.9,2.08c1.38,1.76,1.67,4.14.77,6.18-.89,2.32-2.22,4.45-3.9,6.28-.34.45-.74.87-1.19,1.32ZM3.08,5.6c.01,1.39,1.14,2.5,2.53,2.49s2.5-1.14,2.49-2.53c-.01-1.37-1.13-2.48-2.5-2.49-1.38,0-2.5,1.13-2.49,2.51,0,0,0,.01,0,.02h-.03Z"/>
  </g>
</svg>